<svg xmlns="http://www.w3.org/2000/svg" version="1.1" xmlns:xlink="http://www.w3.org/1999/xlink" xmlns:svgjs="http://svgjs.dev/svgjs" width="2000" height="1500" viewBox="0 0 2000 1500"><rect width="2000" height="1500" fill="#24a8b9"></rect><g transform="matrix(0.75,0,0,0.75,249.090909090909,278.98548387096776)"><svg viewBox="0 0 396 248" data-background-color="#24a8b9" preserveAspectRatio="xMidYMid meet" height="1252" width="2000" xmlns="http://www.w3.org/2000/svg" xmlns:xlink="http://www.w3.org/1999/xlink"><g id="tight-bounds" transform="matrix(1,0,0,1,0.2400000000000091,0.4000000000000057)"><svg viewBox="0 0 395.52 247.2" height="247.2" width="395.52"><g><svg></svg></g><g><svg viewBox="0 0 395.52 247.2" height="247.2" width="395.52"><g transform="matrix(1,0,0,1,135.4011930521092,47.215199999999996)"><svg viewBox="0 0 124.71761389578161 152.7696" height="152.7696" width="124.71761389578161"><g><svg viewBox="0 0 124.71761389578161 152.7696" height="152.7696" width="124.71761389578161"><g><svg viewBox="0 0 124.71761389578161 152.7696" height="152.7696" width="124.71761389578161"><g><svg viewBox="0 0 124.71761389578161 152.7696" height="152.7696" width="124.71761389578161"><g id="textblocktransform"><svg viewBox="0 0 124.71761389578161 152.7696" height="152.7696" width="124.71761389578161" id="textblock"><g><svg viewBox="0 0 124.71761389578161 152.7696" height="152.7696" width="124.71761389578161"><g transform="matrix(1,0,0,1,0,0)"><svg width="124.71761389578161" viewBox="0.4 -39.6 32.9 40.300000000000004" height="152.7696" data-palette-color="#3d5557"><path d="M16.5 0.7Q11.7 0.7 7.43-0.13 3.15-0.95 0.85-2L0.85-2 0.85-11.9 11.85-11.9Q11.85-10.35 12.55-9.65 13.25-8.95 15.1-8.95L15.1-8.95Q16.65-8.95 17.32-9.43 18-9.9 18-10.85L18-10.85Q18-11.65 17.35-12.23 16.7-12.8 15.1-13.4L15.1-13.4 10.8-14.9Q5.25-17 2.83-19.85 0.4-22.7 0.4-27.55L0.4-27.55Q0.4-33.45 4.28-36.52 8.15-39.6 17.2-39.6L17.2-39.6Q21.55-39.6 25.38-38.73 29.2-37.85 31.55-36.4L31.55-36.4 31.55-27.45 21.55-27.45Q21.55-29.95 18.45-29.95L18.45-29.95Q16.95-29.95 16.32-29.58 15.7-29.2 15.7-28.25L15.7-28.25Q15.7-27.4 16.43-26.9 17.15-26.4 18.8-25.85L18.8-25.85 23.15-24.35Q28.45-22.55 30.88-19.68 33.3-16.8 33.3-12.15L33.3-12.15Q33.3-5.8 29.03-2.55 24.75 0.7 16.5 0.7L16.5 0.7Z" opacity="1" transform="matrix(1,0,0,1,0,0)" fill="#3d5557" class="wordmark-text-0" data-fill-palette-color="primary" id="text-0"></path></svg></g></svg></g></svg></g></svg></g></svg></g></svg></g></svg></g><g><path d="M185.959 0c30.402 0 58.24 10.976 79.768 29.183l-11.147 0c-19.26-14.022-42.974-22.294-68.621-22.295-25.647 0-49.361 8.272-68.621 22.295l-11.147 0c21.528-18.206 49.366-29.183 79.768-29.183zM185.959 247.2c-30.402 0-58.24-10.976-79.768-29.183l11.147 0c19.26 14.022 42.974 22.294 68.621 22.295 25.647 0 49.361-8.272 68.621-22.295l11.147 0c-21.528 18.206-49.366 29.183-79.768 29.183z" fill="#183d24" stroke="transparent" data-fill-palette-color="tertiary"></path></g></svg></g><defs></defs></svg><rect width="395.52" height="247.2" fill="none" stroke="none" visibility="hidden"></rect></g></svg></g></svg>